<svg data-v-0dd9719b="" version="1.0" xmlns="http://www.w3.org/2000/svg" xmlns:xlink="http://www.w3.org/1999/xlink" width="100%" height="100%" viewBox="0 0 340.000000 250.000000" preserveAspectRatio="xMidYMid meet" color-interpolation-filters="sRGB" style="margin: auto;"> <rect data-v-0dd9719b="" x="0" y="0" width="100%" height="100%" fill="#fff" fill-opacity="1" class="background"></rect> <rect data-v-0dd9719b="" x="0" y="0" width="100%" height="100%" fill="url(#watermark)" fill-opacity="1" class="watermarklayer"></rect> <g data-v-0dd9719b="" fill="#0070ad" class="icon-text-wrapper icon-svg-group iconsvg" transform="translate(49.01499938964844,95.1611270904541)"><g class="iconsvg-imagesvg" transform="translate(0,0)"><g><rect fill="#0070ad" fill-opacity="0" stroke-width="2" x="0" y="0" width="60" height="59.67774020290431" class="image-rect"></rect> <svg x="0" y="0" width="60" height="59.67774020290431" filtersec="colorsb5650217270" class="image-svg-svg primary" style="overflow: visible;"><svg xmlns="http://www.w3.org/2000/svg" viewBox="-0.0035329684615135193 -0.0021229833364486694 67.18367004394531 66.8228530883789"><path d="M48.28 32.41l15.29-8.83a1.83 1.83 0 0 1 2.68 1.11q.27 1 .48 2.05a1.8 1.8 0 0 1-.88 1.94L48.28 38.83v-6.42zm0 31.28v-7.16l10.1-5.83a1.83 1.83 0 0 1 2.38 2.67 33.57 33.57 0 0 1-10.25 9.15q-1.1.64-2.23 1.18zm0-12.8l17.64-10.18a1.77 1.77 0 0 0 .88-1.25q.24-1.26.37-2.54a1.83 1.83 0 0 0-2.73-1.78l-16.16 9.33v6.42zm0-24.12l13.8-8a1.83 1.83 0 0 0 .66-2.51q-.51-.88-1.07-1.71a1.82 1.82 0 0 0-2.43-.55l-11 6.33v6.42zm0-12.06V8.28l3.57-2.06a1.79 1.79 0 0 1 2 .12q.87.65 1.69 1.35a1.83 1.83 0 0 1-.27 3zM27.5 44.4l20.78-12v6.42l-13 7.49a1.82 1.82 0 0 0-.75 2.34 2.38 2.38 0 0 1 .19 1.28 2.35 2.35 0 0 1-1.19 1.82l-6.06 3.5V44.4zM48.28 8.28v6.42l-20.78 12v-6.42l20.78-12zm0 12.06l-20.78 12v10.75a2.35 2.35 0 0 0 .6-1.09 2.32 2.32 0 0 0-.1-1.59 1.82 1.82 0 0 1 .75-2.35l19.57-11.3v-6.42zm0 24.12l-20.78 12v10l.5.09a1.76 1.76 0 0 0 1.22-.22l13.9-8a2.37 2.37 0 0 0 1.21-2.19 2.45 2.45 0 0 0-.21-.92 1.82 1.82 0 0 1 .75-2.33l3.41-2v-6.42zm0 12.06v7.16a33.48 33.48 0 0 1-10.81 3.13 1.83 1.83 0 0 1-1.12-3.4l11.93-6.89zM27.5 14.64L44.73 4.7a1.79 1.79 0 0 0 .9-1.76 1.79 1.79 0 0 0-1.23-1.56Q43.07.94 41.71.6a1.76 1.76 0 0 0-1.35.19L27.5 8.22v6.43zm0-9.25V.17c5.67-1 2.06 2.57 0 5.22zm-17.23 49L27.5 44.4v10.85L16.85 61.4a1.79 1.79 0 0 1-1.93-.06 33.51 33.51 0 0 1-5-4.11 1.83 1.83 0 0 1 .38-2.88zM27.5.17v5.22a6.66 6.66 0 0 0-1.1 1.76 1.91 1.91 0 0 1-1 1.05L7.07 18.8a1.83 1.83 0 0 1-2.49-2.5A33.78 33.78 0 0 1 24.55.87c1.19-.33 2.16-.56 3-.7zm0 8L2.14 22.86a1.76 1.76 0 0 0-.84 1.07A33.88 33.88 0 0 0 0 31.69a1.79 1.79 0 0 0 .87 1.65 1.79 1.79 0 0 0 1.87 0l19.07-11a2.36 2.36 0 0 0 1.21-2q.07-1.23.22-2.45a1.78 1.78 0 0 1 .9-1.35l3.36-1.94V8.22zm0 12.06L1.1 35.52a1.79 1.79 0 0 0-.9 1.8 33.45 33.45 0 0 0 1.35 6.23 1.77 1.77 0 0 0 1.08 1.15 1.77 1.77 0 0 0 1.57-.12l18.73-10.81a2.39 2.39 0 0 0 1.13-2.7c-.07-.26-.13-.52-.19-.77a1.8 1.8 0 0 1 .87-2l2.76-1.6v-6.42zm0 12.06L4.16 45.82a1.82 1.82 0 0 0-.73 2.39q.49 1 1 2a33.93 33.93 0 0 0 2.11 3.22 1.82 1.82 0 0 0 2.38.5L27 43.5a2.5 2.5 0 0 0 .53-.41V32.34zm0 24.12l-7.66 4.42a1.83 1.83 0 0 0 .16 3.31 33.91 33.91 0 0 0 7.48 2.31z" fill="#0070ad" fill-rule="evenodd"></path></svg></svg> <!----></g></g> <g transform="translate(67,1.0026226043701172)"><g data-gra="path-name" fill-rule="" class="tp-name iconsvg-namesvg" transform="translate(0,0)"><g transform="scale(1)"><g><path d="M3.69 5.13L2.56 3.65Q7.33 0.58 10.87-2.59 14.4-5.76 16.83-9.13L16.83-9.13Q21.2-15.25 21.55-23.04L21.55-23.04 3.1-23.04 3.1-24.66 21.6-24.66 21.6-36.67 23.27-36.67 23.27-24.66 41.85-24.66 41.85-23.04 23.22-23.04 23.22-22.45Q23.98-15.07 28.82-8.57 33.66-2.07 42.7 3.38L42.7 3.38 41.63 5Q33.66 0.04 28.91-5.69 24.16-11.43 22.54-17.73L22.54-17.73Q21.96-15.12 20.9-12.76 19.84-10.39 18.31-8.19L18.31-8.19Q15.84-4.68 12.24-1.42 8.64 1.84 3.69 5.13L3.69 5.13ZM61.97-17.14L61.97-18.68Q63.41-21.02 64.84-23.76 66.28-26.5 67.55-29.38L67.55-29.38 59.72-29.38 59.72-30.91 68.17-30.91Q68.85-32.49 69.39-34 69.93-35.5 70.42-36.95L70.42-36.95 71.95-36.49Q71.46-35.14 70.97-33.75 70.47-32.35 69.84-30.91L69.84-30.91 86.81-30.91 86.81-29.38 69.21-29.38Q67.91-26.37 66.49-23.6 65.07-20.84 63.81-18.68L63.81-18.68 73.13-18.68 73.13-26.05 74.7-26.05 74.7-18.68 85.55-18.68 85.55-17.14 74.7-17.14 74.7-9.27 87.66-9.27 87.66-7.69 74.7-7.69 74.7-0.04 73.13-0.04 73.13-7.69 58.19-7.69 58.19-9.27 73.13-9.27 73.13-17.14 61.97-17.14ZM88.16 1.3L87.97 3.06Q83.16 3.42 78.59 3.46 74.03 3.51 69.88 3.28L69.88 3.28Q67.28 3.15 65.09 2.79 62.91 2.43 61.06 1.73 59.22 1.03 57.64-0.04 56.07-1.13 54.67-2.7L54.67-2.7 48.2 3.92 46.98 2.7 53.87-4.18 53.87-18.81 47.16-18.81 47.16-20.43 55.39-20.43 55.39-4.27Q56.84-2.52 58.43-1.44 60.03-0.36 61.81 0.27 63.59 0.9 65.66 1.19 67.72 1.48 70.11 1.67L70.11 1.67Q72 1.8 73.98 1.87 75.96 1.93 78.12 1.89 80.28 1.84 82.75 1.71 85.23 1.57 88.16 1.3L88.16 1.3ZM50.04-34.56L51.34-35.5Q51.98-34.74 52.83-33.57 53.69-32.4 54.54-31.07 55.39-29.74 56.18-28.44 56.97-27.13 57.47-26.14L57.47-26.14 56.16-25.2Q55.62-26.19 54.88-27.45 54.13-28.71 53.28-30.02 52.42-31.32 51.59-32.51 50.76-33.7 50.04-34.56L50.04-34.56ZM98.41-15.43L126.54-15.43 126.54 0.18Q126.54 2.34 125.59 3.17 124.65 4 122.4 4.14L122.4 4.14Q121.09 4.23 119.86 4.25 118.62 4.27 117.58 4.23L117.58 4.23 117.31 2.65Q118.53 2.75 119.68 2.77 120.83 2.79 122.04 2.79L122.04 2.79Q123.75 2.75 124.4 2.18 125.06 1.62 125.06 0L125.06 0 125.06-2.21 99.94-2.21 99.94 4.72 98.41 4.72 98.41-15.43ZM111.73-36.49L113.27-36.49 113.27-31.63 130.72-31.63 130.72-30.29 113.27-30.29 113.27-26.28 128.79-26.28 128.79-25.02 113.27-25.02 113.27-20.75 132.88-20.75 132.88-19.35 92.11-19.35 92.11-20.75 111.73-20.75 111.73-25.02 96.17-25.02 96.17-26.28 111.73-26.28 111.73-30.29 94.28-30.29 94.28-31.63 111.73-31.63 111.73-36.49ZM99.94-14.08L99.94-9.45 125.06-9.45 125.06-14.08 99.94-14.08ZM99.94-8.14L99.94-3.55 125.06-3.55 125.06-8.14 99.94-8.14ZM143.01-5.98L171.85-5.98 171.85 4.05 143.01 4.05 143.01-5.98ZM140.72-25.29L156.65-25.29 156.65-29.74 139-29.74 139-31.09 161.37-31.09Q161.91-31.59 162.59-32.24 163.26-32.89 164.07-33.8L164.07-33.8Q165.91-35.82 166.77-37.08L166.77-37.08 167.99-36.18Q167.49-35.5 166.81-34.67 166.14-33.84 165.24-32.85L165.24-32.85 163.53-31.09 175.86-31.09 175.86-29.74 158.22-29.74 158.22-25.29 174.15-25.29 174.15-23.89 158.22-23.89 158.22-19.53 176.99-19.53 176.99-18.13 158.22-18.13 158.22-11.74 163.98-11.74Q164.7-12.46 165.22-13 165.74-13.54 166.25-14.13 166.77-14.71 167.44-15.52 168.12-16.34 169.16-17.59L169.16-17.59 170.28-16.7Q169.34-15.57 168.7-14.8 168.07-14.04 167.6-13.5 167.13-12.96 166.79-12.55 166.45-12.15 166.05-11.74L166.05-11.74 177.53-11.74 177.53-10.35 137.29-10.35 137.29-11.74 156.65-11.74 156.65-18.13 137.88-18.13 137.88-19.53 156.65-19.53 156.65-23.89 140.72-23.89 140.72-25.29ZM144.59-4.59L144.59 2.65 170.28 2.65 170.28-4.59 144.59-4.59ZM146.88-36.13L147.96-37.17Q148.46-36.77 149.04-36.18 149.63-35.59 150.39-34.83L150.39-34.83Q151.16-34.06 151.76-33.41 152.37-32.76 152.73-32.27L152.73-32.27 151.56-31.23Q151.2-31.72 150.64-32.33 150.07-32.94 149.31-33.7L149.31-33.7Q147.82-35.23 146.88-36.13L146.88-36.13ZM144.36-16.79L145.44-17.77Q145.89-17.41 146.47-16.83 147.06-16.25 147.78-15.48L147.78-15.48Q148.5-14.71 149.06-14.13 149.63-13.54 149.99-13.05L149.99-13.05 148.86-12.06 146.7-14.49Q145.98-15.25 145.4-15.84 144.81-16.43 144.36-16.79L144.36-16.79Z" transform="translate(-2.559999942779541, 37.16999816894531)"></path></g> <!----> <!----> <!----> <!----> <!----> <!----> <!----></g></g> <g data-gra="path-slogan" fill-rule="" class="tp-slogan iconsvg-slogansvg" fill="#0070ad" transform="translate(5,48.29999923706055)"><rect x="0" height="1" y="4.185000419616699" width="25.25"></rect> <rect height="1" y="4.185000419616699" width="25.25" x="139.72000122070312"></rect> <g transform="translate(28.25,0)"><g transform="scale(1)"><path d="M4.41 0L0.94 0L0.94-8.58L4.45-8.58Q7.92-8.39 8.06-4.41L8.06-4.41Q7.88-0.09 4.41 0L4.41 0ZM4.27-7.64L2.11-7.64L2.11-0.98L4.36-0.98Q6.80-1.13 6.89-4.31L6.89-4.31Q6.84-7.55 4.27-7.64L4.27-7.64ZM15.19 0L14.34-2.48L10.88-2.48L9.98 0L8.81 0L12.05-8.58L13.36-8.58L16.45 0L15.19 0ZM12.61-7.31L11.25-3.52L13.92-3.52L12.66-7.31L12.61-7.31ZM17.48-8.58L18.66-8.58L18.66-1.03L23.02-1.03L23.02 0L17.48 0L17.48-8.58ZM24.33-8.58L25.50-8.58L25.50 0L24.33 0L24.33-8.58ZM33.14 0L32.30-2.48L28.83-2.48L27.94 0L26.77 0L30-8.58L31.31-8.58L34.41 0L33.14 0ZM30.56-7.31L29.20-3.52L31.88-3.52L30.61-7.31L30.56-7.31ZM36.84-8.58L41.16-1.64L41.16-8.58L42.28-8.58L42.28 0L40.97 0L36.61-6.94L36.56-6.94L36.56 0L35.44 0L35.44-8.58L36.84-8.58ZM52.41-1.08L51.52-1.78L52.13-2.48L53.20-1.64Q54.19-2.63 54.19-4.27L54.19-4.27Q54-7.64 51.19-7.83L51.19-7.83Q48.33-7.69 48.19-4.27L48.19-4.27Q48.33-0.94 51.19-0.80L51.19-0.80Q51.89-0.80 52.41-1.08L52.41-1.08ZM54.14-0.94L55.27-0.05L54.70 0.56L53.39-0.33Q52.55 0.14 51.19 0.14L51.19 0.14Q47.25 0 46.97-4.27L46.97-4.27Q47.20-8.72 51.19-8.81L51.19-8.81Q55.08-8.67 55.36-4.27L55.36-4.27Q55.31-2.20 54.14-0.94L54.14-0.94ZM56.91-8.58L58.08-8.58L58.08 0L56.91 0L56.91-8.58ZM61.45-8.58L65.77-1.64L65.77-8.58L66.89-8.58L66.89 0L65.58 0L61.22-6.94L61.17-6.94L61.17 0L60.05 0L60.05-8.58L61.45-8.58ZM75.09-3.61L72.47-3.61L72.47-4.59L76.22-4.59L76.22 0L75.47 0L75.19-1.08Q74.20 0.09 72.38 0.14L72.38 0.14Q70.64 0.14 69.70-0.75L69.70-0.75Q68.30-2.06 68.34-4.36L68.34-4.36Q68.67-8.63 72.42-8.81L72.42-8.81Q75.61-8.63 76.08-6L76.08-6L74.95-6Q74.48-7.78 72.38-7.83L72.38-7.83Q69.70-7.64 69.56-4.31L69.56-4.31Q69.56-0.75 72.42-0.75L72.42-0.75Q73.45-0.75 74.20-1.31L74.20-1.31Q75.14-2.06 75.09-3.61L75.09-3.61ZM84.28-6.09L84.28-6.09L83.20-6.09Q83.11-7.73 81.05-7.83L81.05-7.83Q79.13-7.78 79.13-6.33L79.13-6.33Q79.13-5.39 80.16-5.25L80.16-5.25L82.59-4.69Q84.52-4.22 84.52-2.34L84.52-2.34Q84.47 0.05 81.14 0.14L81.14 0.14Q79.31 0.14 78.56-0.61L78.56-0.61Q77.63-1.31 77.67-2.77L77.67-2.77L78.80-2.77Q78.84-0.80 81.14-0.75L81.14-0.75Q83.39-0.80 83.44-2.20L83.44-2.20Q83.63-3.38 81.56-3.75L81.56-3.75L79.78-4.13Q77.95-4.64 77.95-6.19L77.95-6.19Q78.09-8.72 80.95-8.81L80.95-8.81Q84.19-8.81 84.28-6.09ZM87.14-5.06L91.64-5.06L91.64-8.58L92.81-8.58L92.81 0L91.64 0L91.64-3.98L87.14-3.98L87.14 0L85.97 0L85.97-8.58L87.14-8.58L87.14-5.06ZM100.27 0L99.42-2.48L95.95-2.48L95.06 0L93.89 0L97.13-8.58L98.44-8.58L101.53 0L100.27 0ZM97.69-7.31L96.33-3.52L99-3.52L97.73-7.31L97.69-7.31ZM103.97-8.58L108.28-1.64L108.28-8.58L109.41-8.58L109.41 0L108.09 0L103.73-6.94L103.69-6.94L103.69 0L102.56 0L102.56-8.58L103.97-8.58Z" transform="translate(-0.9375, 8.8125)"></path></g></g></g></g></g><defs v-gra="od"></defs></svg>